<svg xmlns="http://www.w3.org/2000/svg" viewBox="93 177.75 431.22891998291016 219.49990688657084"><rect height="100%" width="100%" x="93" y="177.75" fill="rgba(255, 255, 255, 1)"/> <svg xmlns="http://www.w3.org/2000/svg" xmlns:xlink="http://www.w3.org/1999/xlink" xmlnsSerif="http://www.serif.com/" viewBox="251.13099670410156 179.13099670410156 300 450.00103759765625" version="1.1" xml:space="preserve" height="79.49990688657086" width="52.99980926513672" y="247.75" x="163" preserveAspectRatio="xMinYMin" fill-rule="evenodd" clip-rule="evenodd" stroke-linejoin="round" stroke-miterlimit="2" style="overflow: visible;"><path id="Compound-Group" serifId="Compound Group" d="M451.131,529.132L451.131,429.131L551.131,429.131L551.131,529.131L451.131,529.132ZM451.131,529.132L451.131,629.132L351.131,529.131L251.131,529.131L251.131,429.131L351.131,429.131L451.131,529.132ZM351.131,279.131L351.131,379.131L251.131,379.131L251.131,279.131L351.131,279.131ZM351.131,279.131L351.131,179.131L451.131,279.131L551.131,279.131L551.131,379.131L451.131,379.131L351.131,279.131Z" style="fill: #0A0E27; fill-opacity: 1;"></path></svg> <svg xmlns="http://www.w3.org/2000/svg" x="234.43892669677734" y="303.9999237060547" viewBox="0 5.470000267028809 219.7899932861328 13.949999809265137" height="13.949999809265137" width="219.7899932861328" style="overflow: visible;"><g fill="#000000" fill-opacity="1" style=""><path d="M1.63 6.39L5.04 12.83L8.46 6.39L10.06 6.39L5.78 14.26L5.78 19.24L4.29 19.24L4.29 14.33L0 6.39L1.63 6.39ZM19.91 14.41L19.91 14.41Q19.91 15.59 19.60 16.52Q19.29 17.46 18.71 18.10Q18.13 18.74 17.31 19.08Q16.49 19.42 15.45 19.42L15.45 19.42Q14.48 19.42 13.68 19.08Q12.88 18.74 12.29 18.10Q11.71 17.46 11.39 16.52Q11.07 15.59 11.07 14.41L11.07 14.41Q11.07 12.82 11.60 11.71Q12.14 10.60 13.14 10.02Q14.13 9.43 15.51 9.43L15.51 9.43Q16.83 9.43 17.82 10.02Q18.81 10.61 19.36 11.72Q19.91 12.83 19.91 14.41ZM12.58 14.41L12.58 14.41Q12.58 15.57 12.88 16.42Q13.19 17.27 13.83 17.74Q14.48 18.20 15.49 18.20L15.49 18.20Q16.49 18.20 17.13 17.74Q17.78 17.27 18.09 16.42Q18.40 15.57 18.40 14.41L18.40 14.41Q18.40 13.25 18.09 12.41Q17.78 11.58 17.14 11.12Q16.50 10.66 15.48 10.66L15.48 10.66Q13.97 10.66 13.28 11.65Q12.58 12.65 12.58 14.41ZM28.92 9.61L30.38 9.61L30.38 19.24L29.19 19.24L28.98 17.89L28.90 17.89Q28.60 18.39 28.13 18.73Q27.65 19.07 27.06 19.24Q26.46 19.42 25.80 19.42L25.80 19.42Q24.65 19.42 23.88 19.05Q23.11 18.68 22.72 17.90Q22.32 17.13 22.32 15.92L22.32 15.92L22.32 9.61L23.80 9.61L23.80 15.81Q23.80 17.02 24.35 17.61Q24.89 18.20 26.01 18.20L26.01 18.20Q27.08 18.20 27.72 17.80Q28.35 17.39 28.63 16.61Q28.92 15.82 28.92 14.68L28.92 14.68L28.92 9.61ZM37.85 9.43L37.85 9.43Q38.14 9.43 38.45 9.46Q38.77 9.49 39.01 9.54L39.01 9.54L38.83 10.90Q38.59 10.84 38.30 10.80Q38.01 10.77 37.76 10.77L37.76 10.77Q37.18 10.77 36.66 11.00Q36.15 11.23 35.76 11.67Q35.38 12.10 35.16 12.71Q34.94 13.32 34.94 14.07L34.94 14.07L34.94 19.24L33.47 19.24L33.47 9.61L34.68 9.61L34.84 11.38L34.90 11.38Q35.20 10.85 35.62 10.40Q36.04 9.96 36.60 9.69Q37.16 9.43 37.85 9.43ZM55.33 19.24L53.78 19.24L52.20 15.16L47.05 15.16L45.47 19.24L43.96 19.24L48.99 6.34L50.33 6.34L55.33 19.24ZM47.55 13.83L51.75 13.83L50.25 9.78Q50.19 9.62 50.08 9.26Q49.96 8.90 49.83 8.52Q49.71 8.13 49.63 7.89L49.63 7.89Q49.54 8.25 49.44 8.61Q49.34 8.96 49.25 9.27Q49.15 9.57 49.08 9.78L49.08 9.78L47.55 13.83ZM58.60 19.24L57.10 19.24L57.10 6.39L58.60 6.39L58.60 19.24ZM79.84 6.39L81.40 6.39L77.97 19.24L76.46 19.24L73.92 10.59Q73.80 10.22 73.70 9.85Q73.60 9.47 73.51 9.14Q73.42 8.80 73.37 8.54Q73.31 8.28 73.28 8.15L73.28 8.15Q73.27 8.28 73.22 8.53Q73.17 8.79 73.09 9.12Q73.02 9.46 72.92 9.83Q72.82 10.21 72.70 10.60L72.70 10.60L70.22 19.24L68.72 19.24L65.31 6.39L66.87 6.39L68.93 14.45Q69.04 14.85 69.13 15.24Q69.22 15.64 69.30 16.00Q69.37 16.37 69.43 16.73Q69.50 17.08 69.55 17.41L69.55 17.41Q69.59 17.07 69.66 16.69Q69.73 16.32 69.82 15.93Q69.90 15.55 70.00 15.15Q70.10 14.76 70.22 14.36L70.22 14.36L72.53 6.39L74.07 6.39L76.47 14.42Q76.60 14.84 76.70 15.24Q76.81 15.64 76.89 16.03Q76.97 16.41 77.04 16.76Q77.11 17.10 77.16 17.41L77.16 17.41Q77.22 16.98 77.31 16.51Q77.40 16.03 77.52 15.51Q77.63 14.99 77.77 14.44L77.77 14.44L79.84 6.39ZM91.51 14.41L91.51 14.41Q91.51 15.59 91.20 16.52Q90.90 17.46 90.32 18.10Q89.74 18.74 88.91 19.08Q88.09 19.42 87.06 19.42L87.06 19.42Q86.09 19.42 85.28 19.08Q84.48 18.74 83.90 18.10Q83.31 17.46 82.99 16.52Q82.67 15.59 82.67 14.41L82.67 14.41Q82.67 12.82 83.21 11.71Q83.74 10.60 84.74 10.02Q85.74 9.43 87.12 9.43L87.12 9.43Q88.44 9.43 89.42 10.02Q90.41 10.61 90.96 11.72Q91.51 12.83 91.51 14.41ZM84.18 14.41L84.18 14.41Q84.18 15.57 84.49 16.42Q84.80 17.27 85.44 17.74Q86.08 18.20 87.09 18.20L87.09 18.20Q88.09 18.20 88.74 17.74Q89.38 17.27 89.69 16.42Q90 15.57 90 14.41L90 14.41Q90 13.25 89.69 12.41Q89.38 11.58 88.74 11.12Q88.10 10.66 87.08 10.66L87.08 10.66Q85.58 10.66 84.88 11.65Q84.18 12.65 84.18 14.41ZM98.41 9.43L98.41 9.43Q98.70 9.43 99.02 9.46Q99.33 9.49 99.58 9.54L99.58 9.54L99.40 10.90Q99.16 10.84 98.87 10.80Q98.58 10.77 98.32 10.77L98.32 10.77Q97.74 10.77 97.23 11.00Q96.71 11.23 96.33 11.67Q95.94 12.10 95.72 12.71Q95.50 13.32 95.50 14.07L95.50 14.07L95.50 19.24L94.03 19.24L94.03 9.61L95.25 9.61L95.41 11.38L95.47 11.38Q95.77 10.85 96.19 10.40Q96.61 9.96 97.17 9.69Q97.73 9.43 98.41 9.43ZM101.39 5.56L102.84 5.56L102.84 12.67Q102.84 13.02 102.81 13.52Q102.79 14.03 102.77 14.41L102.77 14.41L102.83 14.41Q103.02 14.19 103.37 13.74Q103.73 13.29 103.97 13.02L103.97 13.02L107.17 9.61L108.89 9.61L105.01 13.72L109.17 19.24L107.41 19.24L104.01 14.68L102.84 15.75L102.84 19.24L101.39 19.24L101.39 5.56ZM115.14 9.61L115.14 10.75L112.74 10.75L112.74 19.24L111.28 19.24L111.28 10.75L109.57 10.75L109.57 10.05L111.28 9.56L111.28 8.92Q111.28 7.71 111.64 6.95Q112.00 6.19 112.68 5.83Q113.37 5.47 114.35 5.47L114.35 5.47Q114.91 5.47 115.37 5.56Q115.83 5.66 116.18 5.78L116.18 5.78L115.80 6.93Q115.51 6.84 115.13 6.75Q114.76 6.67 114.37 6.67L114.37 6.67Q113.54 6.67 113.14 7.21Q112.74 7.75 112.74 8.90L112.74 8.90L112.74 9.61L115.14 9.61ZM125.21 14.41L125.21 14.41Q125.21 15.59 124.90 16.52Q124.59 17.46 124.01 18.10Q123.43 18.74 122.61 19.08Q121.79 19.42 120.75 19.42L120.75 19.42Q119.79 19.42 118.98 19.08Q118.18 18.74 117.59 18.10Q117.01 17.46 116.69 16.52Q116.37 15.59 116.37 14.41L116.37 14.41Q116.37 12.82 116.90 11.71Q117.44 10.60 118.44 10.02Q119.43 9.43 120.81 9.43L120.81 9.43Q122.13 9.43 123.12 10.02Q124.11 10.61 124.66 11.72Q125.21 12.83 125.21 14.41ZM117.88 14.41L117.88 14.41Q117.88 15.57 118.19 16.42Q118.49 17.27 119.14 17.74Q119.78 18.20 120.79 18.20L120.79 18.20Q121.79 18.20 122.44 17.74Q123.08 17.27 123.39 16.42Q123.70 15.57 123.70 14.41L123.70 14.41Q123.70 13.25 123.39 12.41Q123.08 11.58 122.44 11.12Q121.80 10.66 120.78 10.66L120.78 10.66Q119.28 10.66 118.58 11.65Q117.88 12.65 117.88 14.41ZM132.11 9.43L132.11 9.43Q132.40 9.43 132.71 9.46Q133.03 9.49 133.28 9.54L133.28 9.54L133.09 10.90Q132.86 10.84 132.57 10.80Q132.28 10.77 132.02 10.77L132.02 10.77Q131.44 10.77 130.93 11.00Q130.41 11.23 130.03 11.67Q129.64 12.10 129.42 12.71Q129.20 13.32 129.20 14.07L129.20 14.07L129.20 19.24L127.73 19.24L127.73 9.61L128.94 9.61L129.10 11.38L129.16 11.38Q129.46 10.85 129.88 10.40Q130.31 9.96 130.86 9.69Q131.42 9.43 132.11 9.43ZM138.95 19.42L138.95 19.42Q137.65 19.42 136.65 18.88Q135.66 18.34 135.11 17.24Q134.55 16.15 134.55 14.48L134.55 14.48Q134.55 12.73 135.14 11.61Q135.72 10.50 136.75 9.97Q137.78 9.43 139.09 9.43L139.09 9.43Q139.81 9.43 140.48 9.58Q141.15 9.72 141.58 9.94L141.58 9.94L141.14 11.16Q140.70 10.99 140.13 10.85Q139.55 10.71 139.05 10.71L139.05 10.71Q138.05 10.71 137.39 11.14Q136.72 11.57 136.39 12.40Q136.06 13.24 136.06 14.46L136.06 14.46Q136.06 15.63 136.38 16.45Q136.71 17.28 137.34 17.71Q137.98 18.15 138.94 18.15L138.94 18.15Q139.70 18.15 140.32 17.99Q140.93 17.82 141.43 17.60L141.43 17.60L141.43 18.91Q140.95 19.15 140.36 19.28Q139.76 19.42 138.95 19.42ZM147.42 9.43L147.42 9.43Q148.65 9.43 149.53 9.98Q150.41 10.52 150.87 11.50Q151.34 12.48 151.34 13.79L151.34 13.79L151.34 14.70L144.69 14.70Q144.71 16.39 145.53 17.28Q146.35 18.17 147.83 18.17L147.83 18.17Q148.75 18.17 149.45 18Q150.15 17.83 150.91 17.51L150.91 17.51L150.91 18.79Q150.18 19.12 149.46 19.27Q148.75 19.42 147.77 19.42L147.77 19.42Q146.38 19.42 145.35 18.85Q144.32 18.28 143.75 17.18Q143.17 16.08 143.17 14.49L143.17 14.49Q143.17 12.94 143.70 11.80Q144.22 10.66 145.17 10.05Q146.13 9.43 147.42 9.43ZM147.40 10.63L147.40 10.63Q146.23 10.63 145.54 11.39Q144.84 12.16 144.71 13.53L144.71 13.53L149.81 13.53Q149.80 12.67 149.54 12.01Q149.28 11.36 148.75 10.99Q148.23 10.63 147.40 10.63ZM158.71 6.39L162.07 6.39Q164.56 6.39 165.70 7.36Q166.85 8.33 166.85 10.14L166.85 10.14Q166.85 10.96 166.58 11.69Q166.32 12.43 165.72 12.99Q165.12 13.54 164.15 13.86Q163.18 14.19 161.77 14.19L161.77 14.19L160.21 14.19L160.21 19.24L158.71 19.24L158.71 6.39ZM161.93 7.66L161.93 7.66L160.21 7.66L160.21 12.90L161.60 12.90Q162.83 12.90 163.66 12.64Q164.48 12.38 164.89 11.78Q165.30 11.19 165.30 10.20L165.30 10.20Q165.30 8.92 164.49 8.29Q163.67 7.66 161.93 7.66ZM172.92 9.45L172.92 9.45Q174.65 9.45 175.48 10.22Q176.32 11.00 176.32 12.69L176.32 12.69L176.32 19.24L175.25 19.24L174.97 17.82L174.90 17.82Q174.50 18.34 174.06 18.70Q173.62 19.05 173.04 19.23Q172.47 19.42 171.63 19.42L171.63 19.42Q170.75 19.42 170.07 19.11Q169.39 18.80 169.00 18.18Q168.61 17.55 168.61 16.59L168.61 16.59Q168.61 15.15 169.75 14.38Q170.89 13.61 173.23 13.54L173.23 13.54L174.89 13.46L174.89 12.88Q174.89 11.63 174.36 11.13Q173.82 10.63 172.85 10.63L172.85 10.63Q172.09 10.63 171.40 10.85Q170.72 11.07 170.10 11.36L170.10 11.36L169.66 10.26Q170.31 9.92 171.15 9.69Q171.99 9.45 172.92 9.45ZM174.88 15.38L174.88 14.49L173.41 14.55Q171.61 14.63 170.87 15.14Q170.13 15.66 170.13 16.61L170.13 16.61Q170.13 17.44 170.63 17.83Q171.13 18.23 171.96 18.23L171.96 18.23Q173.24 18.23 174.06 17.52Q174.88 16.80 174.88 15.38L174.88 15.38ZM183.70 9.43L183.70 9.43Q183.99 9.43 184.31 9.46Q184.62 9.49 184.87 9.54L184.87 9.54L184.68 10.90Q184.45 10.84 184.16 10.80Q183.87 10.77 183.61 10.77L183.61 10.77Q183.03 10.77 182.52 11.00Q182.00 11.23 181.62 11.67Q181.23 12.10 181.01 12.71Q180.79 13.32 180.79 14.07L180.79 14.07L180.79 19.24L179.32 19.24L179.32 9.61L180.54 9.61L180.69 11.38L180.76 11.38Q181.05 10.85 181.48 10.40Q181.90 9.96 182.46 9.69Q183.01 9.43 183.70 9.43ZM189.79 18.22L189.79 18.22Q190.15 18.22 190.53 18.16Q190.91 18.10 191.14 18.01L191.14 18.01L191.14 19.14Q190.89 19.26 190.44 19.34Q189.98 19.42 189.55 19.42L189.55 19.42Q188.79 19.42 188.17 19.15Q187.54 18.88 187.17 18.24Q186.79 17.60 186.79 16.46L186.79 16.46L186.79 10.75L185.42 10.75L185.42 10.04L186.80 9.47L187.38 7.37L188.26 7.37L188.26 9.61L191.08 9.61L191.08 10.75L188.26 10.75L188.26 16.42Q188.26 17.32 188.68 17.77Q189.10 18.22 189.79 18.22ZM197.66 9.43L197.66 9.43Q199.37 9.43 200.25 10.27Q201.13 11.11 201.13 12.96L201.13 12.96L201.13 19.24L199.69 19.24L199.69 13.06Q199.69 11.86 199.14 11.26Q198.59 10.66 197.46 10.66L197.46 10.66Q195.86 10.66 195.21 11.57Q194.55 12.47 194.55 14.19L194.55 14.19L194.55 19.24L193.10 19.24L193.10 9.61L194.27 9.61L194.49 11.00L194.57 11.00Q194.88 10.49 195.35 10.14Q195.83 9.79 196.42 9.61Q197.01 9.43 197.66 9.43ZM207.84 9.43L207.84 9.43Q209.07 9.43 209.95 9.98Q210.83 10.52 211.30 11.50Q211.76 12.48 211.76 13.79L211.76 13.79L211.76 14.70L205.11 14.70Q205.14 16.39 205.95 17.28Q206.77 18.17 208.26 18.17L208.26 18.17Q209.17 18.17 209.87 18Q210.58 17.83 211.33 17.51L211.33 17.51L211.33 18.79Q210.60 19.12 209.89 19.27Q209.17 19.42 208.20 19.42L208.20 19.42Q206.81 19.42 205.77 18.85Q204.74 18.28 204.17 17.18Q203.60 16.08 203.60 14.49L203.60 14.49Q203.60 12.94 204.12 11.80Q204.64 10.66 205.60 10.05Q206.55 9.43 207.84 9.43ZM207.83 10.63L207.83 10.63Q206.66 10.63 205.96 11.39Q205.27 12.16 205.14 13.53L205.14 13.53L210.23 13.53Q210.23 12.67 209.97 12.01Q209.71 11.36 209.18 10.99Q208.65 10.63 207.83 10.63ZM218.62 9.43L218.62 9.43Q218.91 9.43 219.23 9.46Q219.54 9.49 219.79 9.54L219.79 9.54L219.60 10.90Q219.37 10.84 219.08 10.80Q218.79 10.77 218.53 10.77L218.53 10.77Q217.95 10.77 217.44 11.00Q216.92 11.23 216.54 11.67Q216.15 12.10 215.93 12.71Q215.71 13.32 215.71 14.07L215.71 14.07L215.71 19.24L214.24 19.24L214.24 9.61L215.46 9.61L215.61 11.38L215.67 11.38Q215.97 10.85 216.40 10.40Q216.82 9.96 217.38 9.69Q217.93 9.43 218.62 9.43Z" transform="translate(0, 0)"></path></g></svg> <svg xmlns="http://www.w3.org/2000/svg" x="234.43892669677734" y="251.0499237060547" viewBox="1.6500000953674316 13.300000190734863 174.75 39.650001525878906" height="39.650001525878906" width="174.75" style="overflow: visible;"><g fill="#000000" fill-opacity="1" style=""><path d="M1.65 38.55Q1.65 34.35 3.33 31.10Q5 27.85 7.88 26.10Q10.75 24.35 14.30 24.35L14.30 24.35Q17.40 24.35 19.73 25.60Q22.05 26.85 23.45 28.75L23.45 28.75L23.45 24.80L30.50 24.80L30.50 52.50L23.45 52.50L23.45 48.45Q22.10 50.40 19.73 51.67Q17.35 52.95 14.25 52.95L14.25 52.95Q10.75 52.95 7.88 51.15Q5 49.35 3.33 46.08Q1.65 42.80 1.65 38.55L1.65 38.55ZM23.45 38.65Q23.45 36.10 22.45 34.27Q21.45 32.45 19.75 31.47Q18.05 30.50 16.10 30.50L16.10 30.50Q14.15 30.50 12.50 31.45Q10.85 32.40 9.83 34.22Q8.80 36.05 8.80 38.55L8.80 38.55Q8.80 41.05 9.83 42.92Q10.85 44.80 12.53 45.80Q14.20 46.80 16.10 46.80L16.10 46.80Q18.05 46.80 19.75 45.83Q21.45 44.85 22.45 43.02Q23.45 41.20 23.45 38.65L23.45 38.65ZM40.90 24.80L47.90 46.05L54.90 24.80L62.35 24.80L52.10 52.50L43.60 52.50L33.40 24.80L40.90 24.80ZM68.85 21.50Q67 21.50 65.78 20.32Q64.55 19.15 64.55 17.40L64.55 17.40Q64.55 15.65 65.78 14.48Q67 13.30 68.85 13.30L68.85 13.30Q70.70 13.30 71.92 14.48Q73.15 15.65 73.15 17.40L73.15 17.40Q73.15 19.15 71.92 20.32Q70.70 21.50 68.85 21.50L68.85 21.50ZM65.30 24.80L72.30 24.80L72.30 52.50L65.30 52.50L65.30 24.80ZM93.55 24.40Q98.50 24.40 101.55 27.52Q104.60 30.65 104.60 36.25L104.60 36.25L104.60 52.50L97.60 52.50L97.60 37.20Q97.60 33.90 95.95 32.13Q94.30 30.35 91.45 30.35L91.45 30.35Q88.55 30.35 86.88 32.13Q85.20 33.90 85.20 37.20L85.20 37.20L85.20 52.50L78.20 52.50L78.20 24.80L85.20 24.80L85.20 28.25Q86.60 26.45 88.78 25.42Q90.95 24.40 93.55 24.40L93.55 24.40ZM120.85 52.95Q117.45 52.95 114.75 51.73Q112.05 50.50 110.48 48.40Q108.90 46.30 108.75 43.75L108.75 43.75L115.80 43.75Q116.00 45.35 117.38 46.40Q118.75 47.45 120.80 47.45L120.80 47.45Q122.80 47.45 123.93 46.65Q125.05 45.85 125.05 44.60L125.05 44.60Q125.05 43.25 123.68 42.58Q122.30 41.90 119.30 41.10L119.30 41.10Q116.20 40.35 114.23 39.55Q112.25 38.75 110.83 37.10Q109.40 35.45 109.40 32.65L109.40 32.65Q109.40 30.35 110.73 28.45Q112.05 26.55 114.53 25.45Q117.00 24.35 120.35 24.35L120.35 24.35Q125.30 24.35 128.25 26.82Q131.20 29.30 131.50 33.50L131.50 33.50L124.80 33.50Q124.65 31.85 123.43 30.88Q122.20 29.90 120.15 29.90L120.15 29.90Q118.25 29.90 117.23 30.60Q116.20 31.30 116.20 32.55L116.20 32.55Q116.20 33.95 117.60 34.67Q119.00 35.40 121.95 36.15L121.95 36.15Q124.95 36.90 126.90 37.70Q128.85 38.50 130.28 40.17Q131.70 41.85 131.75 44.60L131.75 44.60Q131.75 47 130.43 48.90Q129.10 50.80 126.63 51.88Q124.15 52.95 120.85 52.95L120.85 52.95ZM152.10 24.40Q155.25 24.40 157.70 25.77Q160.15 27.15 161.53 29.82Q162.90 32.50 162.90 36.25L162.90 36.25L162.90 52.50L155.90 52.50L155.90 37.20Q155.90 33.90 154.25 32.13Q152.60 30.35 149.75 30.35L149.75 30.35Q146.85 30.35 145.18 32.13Q143.50 33.90 143.50 37.20L143.50 37.20L143.50 52.50L136.50 52.50L136.50 15.50L143.50 15.50L143.50 28.25Q144.85 26.45 147.10 25.42Q149.35 24.40 152.10 24.40L152.10 24.40ZM172.10 21.50Q170.25 21.50 169.03 20.32Q167.80 19.15 167.80 17.40L167.80 17.40Q167.80 15.65 169.03 14.48Q170.25 13.30 172.10 13.30L172.10 13.30Q173.95 13.30 175.18 14.48Q176.40 15.65 176.40 17.40L176.40 17.40Q176.40 19.15 175.18 20.32Q173.95 21.50 172.10 21.50L172.10 21.50ZM168.55 24.80L175.55 24.80L175.55 52.50L168.55 52.50L168.55 24.80Z" transform="translate(0, 0)"></path></g></svg></svg>